<svg width="25" height="25" viewBox="0 0 25 25" fill="none" xmlns="http://www.w3.org/2000/svg">
<circle cx="12.5" cy="12.5" r="12.5" fill="#2CAFC3"/>
<path d="M13.8828 10.2254L19.3752 6.4375" stroke="white" stroke-width="0.378788"/>
<path d="M14.6406 11.554L18.8073 9.28125" stroke="white" stroke-width="0.378788"/>
<path d="M14.832 12.1209C14.9835 12.1209 18.3043 11.6158 19.9457 11.3633" stroke="white" stroke-width="0.378788"/>
<path d="M15.3984 13.8241L21.8378 13.4453" stroke="white" stroke-width="0.378788"/>
<path d="M6.6875 17.2359V16.2889H7.06629V17.2359H8.96023V16.8571V15.9102H9.33902V17.2359L8.96023 17.6147H7.06629L6.6875 17.2359Z" fill="white"/>
<path d="M4.03611 14.5825L11.6119 9.84766L14.074 15.7189C11.8013 15.9714 6.68763 16.5522 4.4149 16.8552C3.50581 16.0977 3.78359 15.0244 4.03611 14.5825Z" fill="white"/>
<path d="M14.1552 15.8886C14.3918 15.7958 14.5596 15.6019 14.6689 15.3608C14.7776 15.1208 14.8342 14.823 14.8462 14.4936C14.8703 13.8341 14.7171 13.0104 14.389 12.1735C14.0608 11.3366 13.6133 10.6283 13.1474 10.1609C12.9147 9.92743 12.6708 9.74745 12.4279 9.64536C12.1839 9.5428 11.9291 9.51459 11.6924 9.60739C11.4557 9.70019 11.2879 9.89411 11.1787 10.1352C11.0699 10.3751 11.0133 10.6729 11.0013 11.0024C10.9772 11.6618 11.1305 12.4856 11.4586 13.3225C11.7867 14.1593 12.2342 14.8677 12.7001 15.3351C12.9328 15.5686 13.1768 15.7485 13.4196 15.8506C13.6636 15.9532 13.9185 15.9814 14.1552 15.8886Z" fill="white" stroke="#2CAFC3" stroke-width="0.378788"/>
</svg>
