<svg width="48" height="48" viewBox="0 0 48 48" fill="none" xmlns="http://www.w3.org/2000/svg">
<rect width="48" height="48" rx="24" fill="#4AC2CE"/>
<path d="M14.4713 13.3321L15.7744 12.5058C16.994 11.7323 18.5984 12.0251 19.522 13.1899L21.3611 15.5104C22.1626 16.5206 22.2483 17.939 21.5729 19.0161L19.6964 22.0132C20.2241 23.3644 21.0681 24.6074 22.2298 25.7416C23.34 26.8427 24.6659 27.7115 26.1291 28.2967L28.8714 26.5076C29.9103 25.831 31.2653 25.9272 32.2334 26.7456L34.4882 28.6524C35.6153 29.6044 35.9008 31.2564 35.1588 32.5179L34.3632 33.87C33.5715 35.2155 32.1398 36.0111 30.6022 35.957C26.9743 35.8304 23.0765 33.6134 18.9073 29.3064C14.7322 24.9927 12.5862 20.9566 12.4682 17.2038C12.4187 15.6245 13.1817 14.1507 14.474 13.3314L14.4713 13.3321Z" fill="white"/>
</svg>
