<svg width="48" height="48" viewBox="0 0 48 48" fill="none" xmlns="http://www.w3.org/2000/svg">
<path d="M24 0C10.7451 0 0 10.7451 0 24C0 37.2549 10.7451 48 24 48C37.2549 48 48 37.2549 48 24C48 10.7451 37.2549 0 24 0Z" fill="#25D366"/>
<path fill-rule="evenodd" clip-rule="evenodd" d="M14.9303 24C14.9303 18.6349 19.3908 14.2857 24.893 14.2857C30.3953 14.2857 34.8558 18.6349 34.8558 24C34.8558 29.365 30.3953 33.7142 24.893 33.7142C22.9331 33.7142 21.1087 33.1636 19.5694 32.2126C19.2829 32.0357 18.9319 31.9884 18.6069 32.0829L15.2323 33.065L16.5029 30.166C16.653 29.8234 16.6225 29.4309 16.421 29.1144C15.4761 27.6297 14.9303 25.8787 14.9303 24ZM24.893 12C18.0961 12 12.5861 17.3726 12.5861 24C12.5861 26.1007 13.1406 28.078 14.1152 29.7973L12.0943 34.408C11.9157 34.8156 11.9949 35.2872 12.2975 35.6179C12.6001 35.9487 13.0717 36.079 13.5073 35.9522L18.781 34.4177C20.5826 35.4245 22.6704 35.9999 24.893 35.9999C31.69 35.9999 37.2 30.6274 37.2 24C37.2 17.3726 31.69 12 24.893 12ZM27.58 26.4941L26.0397 27.5521C25.3183 27.1514 24.5206 26.5921 23.7206 25.812C22.8889 25.001 22.2722 24.1637 21.8176 23.3957L22.7965 22.5856C23.2166 22.2379 23.3316 21.6518 23.0728 21.1774L21.8255 18.8917C21.6575 18.584 21.3547 18.3678 21.003 18.3046C20.6514 18.2415 20.2894 18.3383 20.02 18.5675L19.6502 18.8822C18.7609 19.639 18.235 20.8826 18.6709 22.1418C19.1228 23.4472 20.0872 25.5017 22.063 27.4282C24.1887 29.5009 26.3479 30.3171 27.6106 30.6341C28.628 30.8894 29.5908 30.5472 30.2692 30.0082L30.9625 29.4573C31.259 29.2218 31.419 28.8598 31.3911 28.4879C31.3631 28.1159 31.1507 27.7805 30.8221 27.5896L28.8549 26.4467C28.4576 26.216 27.9583 26.2345 27.58 26.4941Z" fill="white"/>
</svg>
